<?xml version="1.0" standalone="no"?>
<!DOCTYPE svg PUBLIC "-//W3C//DTD SVG 20010904//EN"
 "http://www.w3.org/TR/2001/REC-SVG-20010904/DTD/svg10.dtd">
<svg version="1.0" xmlns="http://www.w3.org/2000/svg"
 width="700.000000pt" height="700.000000pt" viewBox="0 0 700.000000 700.000000"
 preserveAspectRatio="xMidYMid meet">
<metadata>
Created by potrace 1.14, written by Peter Selinger 2001-2017
</metadata>
<g transform="translate(0.000000,700.000000) scale(0.100000,-0.100000)"
fill="#000000" stroke="none">
<path d="M3438 6344 c-2 -1 -17 -4 -35 -7 -76 -12 -155 -62 -309 -197 -22 -19
-51 -44 -65 -55 -23 -19 -326 -276 -379 -322 -32 -27 -499 -423 -564 -477 -27
-23 -54 -46 -61 -53 -6 -6 -41 -35 -76 -64 -35 -29 -66 -55 -69 -59 -5 -5
-119 -102 -155 -131 -11 -10 -51 -44 -90 -76 -38 -33 -81 -68 -94 -79 -13 -10
-31 -26 -40 -35 -9 -8 -74 -64 -146 -125 -71 -60 -141 -119 -155 -131 -61 -53
-78 -67 -120 -101 -105 -87 -155 -156 -191 -267 -10 -32 -13 -317 -14 -1455 0
-778 3 -1440 7 -1470 17 -116 106 -244 213 -306 104 -60 107 -60 915 -60 l735
1 48 24 c52 25 93 71 111 125 9 26 12 275 11 963 l0 929 583 0 c320 0 582 -3
583 -6 0 -3 2 -423 2 -935 l2 -930 24 -48 c24 -49 64 -87 116 -108 36 -15
1458 -21 1539 -6 116 20 223 92 288 192 77 119 72 1 73 1600 0 1530 2 1474
-50 1580 -32 67 -78 112 -294 295 -101 85 -189 160 -195 165 -6 6 -38 33 -71
60 -33 28 -62 52 -65 55 -5 5 -167 143 -218 185 -14 11 -30 25 -36 30 -6 6
-60 53 -121 104 -60 51 -121 103 -135 115 -14 11 -84 70 -155 131 -72 60 -132
112 -135 115 -3 3 -48 41 -100 85 -52 43 -113 95 -135 114 -23 20 -63 54 -90
76 -27 22 -62 52 -79 67 -246 214 -503 424 -549 447 -62 33 -147 52 -215 49
-23 -1 -43 -2 -44 -4z"/>
</g>
</svg>
